<svg width="256" height="256" viewBox="0 0 256 256" fill="none" xmlns="http://www.w3.org/2000/svg">
<path d="M129.067 197.867L128 198.933L126.827 197.867C76.1599 151.893 42.6666 121.493 42.6666 90.6667C42.6666 69.3333 58.6666 53.3333 79.9999 53.3333C96.4266 53.3333 112.427 64 118.08 78.5067H137.92C143.573 64 159.573 53.3333 176 53.3333C197.333 53.3333 213.333 69.3333 213.333 90.6667C213.333 121.493 179.84 151.893 129.067 197.867ZM176 32C157.44 32 139.627 40.64 128 54.1867C116.373 40.64 98.5599 32 79.9999 32C47.1466 32 21.3333 57.7067 21.3333 90.6667C21.3333 130.88 57.5999 163.84 112.533 213.653L128 227.733L143.467 213.653C198.4 163.84 234.667 130.88 234.667 90.6667C234.667 57.7067 208.853 32 176 32Z" fill="#07080A"/>
</svg>
