<svg width="256" height="256" viewBox="0 0 256 256" fill="none" xmlns="http://www.w3.org/2000/svg">
<path d="M192 47.7868C175.026 30.8129 152.005 21.2771 128 21.2771C103.995 21.2771 80.9739 30.8129 64 47.7868C47.0262 64.7606 37.4904 87.7821 37.4904 111.787C37.4904 135.791 47.0262 158.813 64 175.787L120.213 232.107C121.205 233.107 122.385 233.9 123.685 234.442C124.984 234.983 126.379 235.262 127.787 235.262C129.195 235.262 130.589 234.983 131.889 234.442C133.189 233.9 134.368 233.107 135.36 232.107L192 175.253C208.903 158.35 218.399 135.425 218.399 111.52C218.399 87.6155 208.903 64.69 192 47.7868ZM176.747 160L128 208.96L79.2534 160C69.6229 150.361 63.0664 138.083 60.4128 124.718C57.7591 111.353 59.1274 97.5014 64.3446 84.914C69.5618 72.3267 78.3938 61.5686 89.7241 53.9999C101.054 46.4311 114.374 42.3914 128 42.3914C141.626 42.3914 154.946 46.4311 166.276 53.9999C177.606 61.5686 186.438 72.3267 191.655 84.914C196.873 97.5014 198.241 111.353 195.587 124.718C192.934 138.083 186.377 150.361 176.747 160ZM96 79.0401C87.389 87.6777 82.5536 99.3768 82.5536 111.573C82.5536 123.77 87.389 135.469 96 144.107C102.397 150.515 110.545 154.892 119.42 156.687C128.296 158.483 137.504 157.617 145.889 154.199C154.274 150.781 161.463 144.963 166.554 137.475C171.646 129.986 174.412 121.161 174.507 112.107C174.555 106.061 173.39 100.067 171.082 94.4789C168.773 88.8909 165.368 83.8226 161.067 79.5734C156.839 75.2489 151.798 71.8032 146.234 69.4344C140.67 67.0656 134.692 65.8206 128.644 65.7711C122.597 65.7215 116.599 66.8683 110.997 69.1456C105.395 71.4228 100.298 74.7855 96 79.0401ZM146.027 128.96C141.984 133.064 136.642 135.636 130.913 136.237C125.184 136.839 119.425 135.431 114.619 132.255C109.813 129.08 106.259 124.333 104.565 118.828C102.872 113.322 103.143 107.399 105.333 102.071C107.523 96.7433 111.495 92.3416 116.572 89.6186C121.648 86.8956 127.512 86.0205 133.162 87.1427C138.812 88.2649 143.897 91.3149 147.547 95.7711C151.197 100.227 153.186 105.813 153.173 111.573C153.018 118.158 150.256 124.411 145.493 128.96H146.027Z" fill="black"/>
</svg>
