<svg width="256" height="256" viewBox="0 0 256 256" fill="none" xmlns="http://www.w3.org/2000/svg">
<path d="M232.49 215.51L185 168C199.239 149.445 205.887 126.168 203.595 102.892C201.303 79.615 190.243 58.0818 172.658 42.66C155.074 27.2382 132.282 19.0826 108.905 19.8477C85.5285 20.6127 63.3182 30.2411 46.7796 46.7797C30.241 63.3183 20.6126 85.5286 19.8476 108.905C19.0825 132.282 27.2381 155.074 42.6599 172.659C58.0817 190.243 79.6149 201.303 102.891 203.595C126.168 205.887 149.445 199.239 168 185L215.53 232.54C216.646 233.656 217.971 234.542 219.43 235.146C220.888 235.75 222.451 236.061 224.03 236.061C225.609 236.061 227.172 235.75 228.63 235.146C230.089 234.542 231.414 233.656 232.53 232.54C233.646 231.424 234.532 230.099 235.136 228.64C235.74 227.182 236.051 225.619 236.051 224.04C236.051 222.461 235.74 220.898 235.136 219.44C234.532 217.981 233.646 216.656 232.53 215.54L232.49 215.51ZM44 112C44 98.551 47.9881 85.4039 55.46 74.2213C62.932 63.0388 73.5521 54.323 85.9775 49.1763C98.4029 44.0295 112.075 42.6829 125.266 45.3067C138.457 47.9305 150.573 54.4069 160.083 63.9168C169.593 73.4268 176.07 85.5432 178.693 98.734C181.317 111.925 179.971 125.597 174.824 138.023C169.677 150.448 160.961 161.068 149.779 168.54C138.596 176.012 125.449 180 112 180C93.9709 179.982 76.6856 172.811 63.9372 160.063C51.1887 147.314 44.0185 130.029 44 112Z" fill="#5F5F5F"/>
</svg>
