<svg width="256" height="256" viewBox="0 0 256 256" fill="none" xmlns="http://www.w3.org/2000/svg">
<path d="M229.66 218.34L179.59 168.28C194.102 150.857 201.339 128.51 199.794 105.887C198.25 83.2649 188.043 62.1086 171.298 46.8198C154.552 31.531 132.557 23.2866 109.887 23.8018C87.2178 24.317 65.6197 33.5521 49.5859 49.5859C33.5521 65.6197 24.317 87.2178 23.8018 109.887C23.2866 132.557 31.531 154.552 46.8198 171.298C62.1086 188.043 83.2649 198.25 105.887 199.794C128.51 201.339 150.857 194.102 168.28 179.59L218.34 229.66C219.083 230.403 219.966 230.993 220.937 231.395C221.908 231.797 222.949 232.005 224 232.005C225.051 232.005 226.092 231.797 227.063 231.395C228.034 230.993 228.917 230.403 229.66 229.66C230.403 228.917 230.993 228.034 231.395 227.063C231.797 226.092 232.005 225.051 232.005 224C232.005 222.949 231.797 221.908 231.395 220.937C230.993 219.966 230.403 219.083 229.66 218.34ZM40.0001 112C40.0001 97.7598 44.2228 83.8394 52.1343 71.999C60.0457 60.1587 71.2906 50.9303 84.4469 45.4808C97.6032 40.0312 112.08 38.6054 126.047 41.3835C140.013 44.1617 152.842 51.019 162.912 61.0884C172.981 71.1578 179.839 83.987 182.617 97.9536C185.395 111.92 183.969 126.397 178.519 139.553C173.07 152.71 163.841 163.954 152.001 171.866C140.161 179.777 126.24 184 112 184C92.911 183.979 74.6098 176.386 61.1118 162.888C47.6138 149.39 40.0213 131.089 40.0001 112Z" fill="#07080A"/>
</svg>
