<svg width="256" height="256" viewBox="0 0 256 256" fill="none" xmlns="http://www.w3.org/2000/svg">
<path d="M80 128V64C80 51.2696 85.0571 39.0606 94.0589 30.0589C103.061 21.0571 115.27 16 128 16C140.73 16 152.939 21.0571 161.941 30.0589C170.943 39.0606 176 51.2696 176 64V128C176 140.73 170.943 152.939 161.941 161.941C152.939 170.943 140.73 176 128 176C115.27 176 103.061 170.943 94.0589 161.941C85.0571 152.939 80 140.73 80 128ZM208 128C208 125.878 207.157 123.843 205.657 122.343C204.157 120.843 202.122 120 200 120C197.878 120 195.843 120.843 194.343 122.343C192.843 123.843 192 125.878 192 128C192 144.974 185.257 161.253 173.255 173.255C161.253 185.257 144.974 192 128 192C111.026 192 94.7475 185.257 82.7452 173.255C70.7428 161.253 64 144.974 64 128C64 125.878 63.1571 123.843 61.6569 122.343C60.1566 120.843 58.1217 120 56 120C53.8783 120 51.8434 120.843 50.3431 122.343C48.8429 123.843 48 125.878 48 128C48.0244 147.825 55.3992 166.938 68.6984 181.641C81.9976 196.344 100.276 205.593 120 207.6V232C120 234.122 120.843 236.157 122.343 237.657C123.843 239.157 125.878 240 128 240C130.122 240 132.157 239.157 133.657 237.657C135.157 236.157 136 234.122 136 232V207.6C155.724 205.593 174.002 196.344 187.302 181.641C200.601 166.938 207.976 147.825 208 128Z" fill="#5F5F5F"/>
</svg>
