<svg width="256" height="256" viewBox="0 0 256 256" fill="none" xmlns="http://www.w3.org/2000/svg">
<path d="M208 232H206.64C49.44 222.96 27.12 90.32 24 49.84C23.7486 46.6926 24.1207 43.5266 25.095 40.5233C26.0693 37.52 27.6266 34.7384 29.6778 32.338C31.7289 29.9376 34.2335 27.9655 37.0481 26.5347C39.8627 25.1039 42.932 24.2426 46.08 24H90.16C93.3645 23.9969 96.4961 24.9561 99.1491 26.7533C101.802 28.5505 103.854 31.103 105.04 34.08L117.2 64C118.371 66.9084 118.661 70.0966 118.036 73.1687C117.41 76.2408 115.895 79.0614 113.68 81.28L96.64 98.48C99.3018 113.606 106.545 127.549 117.391 138.424C128.237 149.298 142.161 156.578 157.28 159.28L174.64 142.08C176.892 139.889 179.739 138.41 182.826 137.827C185.913 137.243 189.104 137.582 192 138.8L222.16 150.88C225.092 152.103 227.594 154.171 229.346 156.821C231.099 159.471 232.023 162.583 232 165.76V208C232 214.365 229.471 220.47 224.971 224.971C220.47 229.471 214.365 232 208 232ZM48 40C45.8783 40 43.8435 40.8429 42.3432 42.3432C40.8429 43.8434 40 45.8783 40 48V48.64C43.68 96 67.28 208 207.52 216C208.571 216.065 209.625 215.922 210.62 215.579C211.616 215.236 212.534 214.699 213.321 214.001C214.109 213.302 214.751 212.455 215.211 211.507C215.671 210.56 215.939 209.531 216 208.48V165.76L185.84 153.68L162.88 176.48L159.04 176C89.44 167.28 80 97.68 80 96.96L79.52 93.12L102.24 70.16L90.24 40H48Z" fill="#07080A"/>
</svg>
