<svg width="208" height="208" viewBox="0 0 208 208" fill="none" xmlns="http://www.w3.org/2000/svg">
<path d="M168 112H40C29.3913 112 19.2172 116.214 11.7157 123.716C4.21427 131.217 0 141.391 0 152V208H16V152C16 145.635 18.5286 139.53 23.0294 135.029C27.5303 130.529 33.6348 128 40 128H168C174.365 128 180.47 130.529 184.971 135.029C189.471 139.53 192 145.635 192 152V208H208V152C208 141.391 203.786 131.217 196.284 123.716C188.783 116.214 178.609 112 168 112Z" fill="black"/>
<path d="M104 96C113.494 96 122.774 93.1849 130.667 87.9106C138.561 82.6363 144.713 75.1397 148.346 66.3688C151.979 57.598 152.93 47.9468 151.078 38.6357C149.226 29.3246 144.654 20.7718 137.941 14.0589C131.228 7.34598 122.675 2.77442 113.364 0.922328C104.053 -0.929762 94.402 0.0207977 85.6312 3.6538C76.8603 7.28681 69.3638 13.4391 64.0895 21.3327C58.8152 29.2262 56 38.5065 56 48C56 60.7304 61.0571 72.9394 70.0589 81.9411C79.0606 90.9429 91.2696 96 104 96ZM104 16C110.329 16 116.516 17.8768 121.778 21.393C127.041 24.9092 131.142 29.9069 133.564 35.7542C135.986 41.6014 136.62 48.0355 135.385 54.2429C134.15 60.4503 131.103 66.1522 126.627 70.6274C122.152 75.1027 116.45 78.1504 110.243 79.3852C104.035 80.6199 97.6014 79.9862 91.7541 77.5642C85.9069 75.1422 80.9092 71.0406 77.393 65.7783C73.8768 60.5159 72 54.329 72 48C72 39.5131 75.3714 31.3738 81.3726 25.3726C87.3737 19.3714 95.5131 16 104 16Z" fill="black"/>
</svg>
